# xmcd
#
# Track frame offsets: 
#        182
#        18915
#        42347
#        55347
#        69135
#        87315
#        101707
#        116340
#        137612
#        153072
#
# Disc length: 2290 seconds
#
# Revision: 2
# Processed by: cddbd v1.5.2PL0 Copyright (c) Steve Scherf et al.
# Submitted via: ExactAudioCopy v1.0b3
#
DISCID=7408f00a
DTITLE=Shirley Bassey - All By Myself
DYEAR=1983
DGENRE=
TTITLE0=All By Myself
TTITLE1=This Masquerade
TTITLE2=If And When
TTITLE3=He's Out Of My Life
TTITLE4=New York State Of Mind
TTITLE5=Can You Read My Mind
TTITLE6=Only When I Laugh
TTITLE7=Solitaire
TTITLE8=New York Medley
TTITLE9=We Don't Cry Out Loud
EXTD=
EXTT0=
EXTT1=
EXTT2=
EXTT3=
EXTT4=
EXTT5=
EXTT6=
EXTT7=
EXTT8=
EXTT9=
PLAYORDER=
